<?xml version="1.0" standalone="no"?>
<!DOCTYPE svg PUBLIC "-//W3C//DTD SVG 20010904//EN"
 "http://www.w3.org/TR/2001/REC-SVG-20010904/DTD/svg10.dtd">
<svg version="1.0" xmlns="http://www.w3.org/2000/svg"
 width="300.000000pt" height="300.000000pt" viewBox="0 0 300.000000 300.000000"
 preserveAspectRatio="xMidYMid meet">
<metadata>
Created by potrace 1.10, written by Peter Selinger 2001-2011
</metadata>
<g transform="translate(0.000000,300.000000) scale(0.100000,-0.100000)"
fill="#000000" stroke="none">
<path d="M1198 2503 l-296 -298 71 -68 c70 -67 71 -67 91 -48 46 41 109 65
176 64 76 0 123 -17 178 -67 100 -91 115 -230 37 -346 l-33 -50 68 -68 69 -69
77 78 c42 44 78 79 80 79 2 0 4 -7 4 -15 0 -24 62 -87 105 -106 51 -23 90 -23
140 0 102 47 144 156 95 250 -23 45 -74 91 -101 91 -10 0 -19 2 -19 3 0 2 48
52 108 110 l107 107 -325 325 c-179 179 -327 325 -330 325 -3 0 -139 -134
-302 -297z m602 -48 c159 -159 290 -295 290 -302 0 -6 -18 -33 -40 -58 -22
-25 -40 -43 -40 -38 0 4 -9 -5 -20 -22 -11 -16 -20 -26 -20 -20 0 5 -11 -7
-25 -27 -14 -20 -25 -41 -25 -47 0 -5 21 -26 46 -47 25 -21 52 -50 60 -65 19
-38 18 -114 -3 -149 -35 -59 -131 -87 -191 -56 -15 8 -47 37 -72 64 -52 59
-54 59 -142 -25 -64 -60 -75 -61 -122 -1 l-25 32 20 32 c94 153 42 349 -116
432 -42 22 -63 26 -131 27 -71 0 -88 -4 -143 -32 l-62 -32 -39 41 -40 40 19
27 c11 14 77 83 148 152 70 70 138 137 149 150 49 55 225 222 229 218 2 -2
135 -134 295 -294z"/>
<path d="M515 1824 l-321 -324 298 -297 298 -298 69 69 70 69 -28 33 c-86 97
-76 257 21 354 93 93 261 99 351 12 l28 -26 70 71 71 70 -78 77 c-46 45 -74
80 -67 82 28 12 78 51 96 75 39 54 35 166 -10 219 -91 109 -264 84 -313 -45
l-11 -30 -105 108 c-58 59 -109 106 -112 105 -4 -1 -151 -147 -327 -324z m405
209 c60 -66 117 -113 136 -113 8 0 28 19 45 42 90 125 267 94 286 -50 6 -45
-17 -109 -43 -119 -8 -3 -12 -8 -10 -12 3 -4 -8 -12 -23 -19 -15 -7 -33 -23
-39 -37 -10 -22 -8 -29 21 -62 17 -21 44 -49 59 -62 16 -13 28 -31 28 -39 0
-19 -59 -82 -76 -82 -7 0 -36 12 -66 27 -45 24 -65 28 -133 28 -90 0 -138 -19
-208 -85 -56 -51 -79 -103 -85 -186 -5 -76 7 -130 39 -176 11 -14 19 -32 19
-40 0 -16 -69 -90 -81 -86 -16 5 -539 529 -539 540 0 6 129 140 288 299 196
198 294 289 308 289 14 0 41 -21 74 -57z"/>
<path d="M2137 2025 l-67 -72 21 -19 c43 -39 64 -94 64 -174 0 -85 -20 -134
-77 -190 -93 -93 -261 -99 -351 -12 l-28 26 -70 -71 -71 -70 78 -77 c46 -45
74 -80 67 -82 -32 -14 -80 -53 -100 -83 -29 -43 -31 -130 -5 -180 52 -104 193
-134 278 -59 19 17 43 46 52 65 l18 34 103 -106 c57 -58 104 -105 105 -105 1
0 148 146 326 325 l325 325 -300 298 -300 298 -68 -71z m345 -252 c148 -148
268 -272 268 -277 0 -5 -132 -141 -294 -303 -251 -251 -297 -293 -313 -284
-10 5 -50 43 -90 84 -97 102 -104 103 -167 34 -69 -75 -124 -89 -197 -52 -99
52 -103 176 -7 256 30 26 48 49 48 62 0 13 -25 48 -62 85 l-61 64 46 46 c43
43 47 45 64 30 10 -9 47 -26 83 -38 113 -38 218 -13 308 73 87 84 107 217 50
339 l-31 69 38 39 c22 22 41 40 44 40 3 0 126 -120 273 -267z"/>
<path d="M1365 1369 c-43 -43 -78 -79 -80 -79 -2 0 -5 10 -9 23 -13 53 -107
117 -171 117 -65 0 -151 -61 -174 -123 -26 -68 0 -160 58 -210 18 -15 41 -27
52 -27 10 0 19 -2 19 -3 0 -2 -48 -52 -107 -110 l-108 -107 327 -327 328 -328
299 299 298 298 -70 69 c-70 69 -70 69 -91 50 -30 -27 -94 -57 -139 -65 -54
-10 -139 10 -186 45 -125 90 -152 242 -66 370 l34 49 -69 69 -69 69 -76 -79z
m-195 6 c15 -8 45 -35 65 -60 23 -27 46 -45 58 -45 13 0 47 25 83 61 l62 62
31 -22 c60 -43 63 -55 27 -124 -27 -53 -31 -73 -31 -137 0 -170 115 -287 290
-297 64 -4 75 -1 139 31 l69 35 38 -38 c22 -21 39 -43 39 -48 0 -10 -510 -522
-533 -535 -13 -7 -78 54 -307 284 -159 161 -290 299 -290 307 0 8 33 46 73 86
39 39 79 84 87 100 14 27 14 28 -30 67 -63 56 -80 85 -80 138 0 110 115 184
210 135z"/>
</g>
</svg>
